HIERARCHY
ROOT SpineBase
{
  OFFSET 0.000000 0.000000 0.000000
  CHANNELS 6 Xposition Yposition Zposition Zrotation Xrotation Yrotation
  JOINT SpineMid
  {
    OFFSET 0.000000 26.927986 0.000000
    CHANNELS 3 Zrotation Xrotation Yrotation
    JOINT SpineShoulder
    {
      OFFSET -0.076558 20.000328 -0.561932
      CHANNELS 3 Zrotation Xrotation Yrotation
      JOINT Neck
      {
        OFFSET -0.086537 6.639829 -0.467146
        CHANNELS 3 Zrotation Xrotation Yrotation
        JOINT Head
        {
          OFFSET 0.766782 12.553952 -0.637402
          CHANNELS 3 Zrotation Xrotation Yrotation
          End Site
          {
            OFFSET 0 0 0
          }
        }
      }
      JOINT ShoulderLeft
      {
        OFFSET -11.534417 -0.940190 9.570413
        CHANNELS 3 Zrotation Xrotation Yrotation
        JOINT ElbowLeft
        {
          OFFSET -6.415778 -18.501823 3.134962
          CHANNELS 3 Zrotation Xrotation Yrotation
          JOINT WristLeft
          {
            OFFSET -13.397241 -12.924456 -8.314415
            CHANNELS 3 Zrotation Xrotation Yrotation
            JOINT HandLeft
            {
              OFFSET -3.666760 -4.157254 -1.111402
              CHANNELS 3 Zrotation Xrotation Yrotation
              JOINT HandTipLeft
              {
                OFFSET -4.385021 -4.163663 -1.303582
                CHANNELS 3 Zrotation Xrotation Yrotation
                End Site
                {
                  OFFSET 0 0 0
                }
              }
              JOINT ThumbLeft
              {
                OFFSET -2.954295 2.847996 -1.117032
                CHANNELS 3 Zrotation Xrotation Yrotation
                End Site
                {
                  OFFSET 0 0 0
                }
              }
            }
          }
        }
      }
      JOINT ShoulderRight
      {
        OFFSET 6.596635 -4.400341 -11.429040
        CHANNELS 3 Zrotation Xrotation Yrotation
        JOINT ElbowRight
        {
          OFFSET -7.731442 -19.588907 -1.618610
          CHANNELS 3 Zrotation Xrotation Yrotation
          JOINT WristRight
          {
            OFFSET 16.094220 -10.678214 -0.666193
            CHANNELS 3 Zrotation Xrotation Yrotation
            JOINT HandRight
            {
              OFFSET 3.557433 -2.349552 0.317256
              CHANNELS 3 Zrotation Xrotation Yrotation
              JOINT HandTipRight
              {
                OFFSET 3.303597 0.446192 2.180603
                CHANNELS 3 Zrotation Xrotation Yrotation
                End Site
                {
                  OFFSET 0 0 0
                }
              }
              JOINT ThumbRight
              {
                OFFSET 3.757112 2.673390 0.429466
                CHANNELS 3 Zrotation Xrotation Yrotation
                End Site
                {
                  OFFSET 0 0 0
                }
              }
            }
          }
        }
      }
    }
  }
  JOINT HipLeft
  {
    OFFSET -5.488655 0.811567 1.432532
    CHANNELS 3 Zrotation Xrotation Yrotation
    JOINT KneeLeft
    {
      OFFSET -34.563286 8.346233 3.074540
      CHANNELS 3 Zrotation Xrotation Yrotation
      JOINT AnkleLeft
      {
        OFFSET -7.273529 -32.909628 3.982488
        CHANNELS 3 Zrotation Xrotation Yrotation
        JOINT FootLeft
        {
          OFFSET 0.741939 -5.344062 -9.530059
          CHANNELS 3 Zrotation Xrotation Yrotation
          End Site
          {
            OFFSET 0 0 0
          }
        }
      }
    }
  }
  JOINT HipRight
  {
    OFFSET 4.551957 0.611089 -7.637810
    CHANNELS 3 Zrotation Xrotation Yrotation
    JOINT KneeRight
    {
      OFFSET -31.631221 1.333692 -11.758005
      CHANNELS 3 Zrotation Xrotation Yrotation
      JOINT AnkleRight
      {
        OFFSET -4.572722 -32.502666 6.256001
        CHANNELS 3 Zrotation Xrotation Yrotation
        JOINT FootRight
        {
          OFFSET -6.789575 -2.610669 -7.695893
          CHANNELS 3 Zrotation Xrotation Yrotation
          End Site
          {
            OFFSET 0 0 0
          }
        }
      }
    }
  }
}
MOTION
Frames: 7
Frame Time: 0.033333
34.728319 44.955076 365.168096 10.953800 -21.025095 1.295703 -0.538960 -0.181289 1.057708 -0.610673 0.121249 0.283225 16.193988 26.067473 -8.252083 0.000000 0.000000 0.000000 2.937305 -16.496913 16.229611 10.361405 11.605140 -2.619092 0.667701 -2.898930 5.276672 7.374279 15.809419 -24.375385 0.000000 0.000000 0.000000 0.000000 0.000000 0.000000 18.287820 31.228651 -18.493839 -105.366063 -8.574265 -17.913070 -11.295607 5.142435 15.139973 5.169788 64.799695 -3.674507 0.000000 0.000000 0.000000 0.000000 0.000000 0.000000 38.534729 31.903697 0.818225 -26.293591 -16.995293 -13.505550 -44.147894 0.507408 41.916101 0.000000 0.000000 0.000000 34.362138 -4.119263 -16.070520 -37.013340 2.910204 19.139091 -9.430480 11.838801 -0.928892 0.000000 0.000000 0.000000
32.811006 47.442823 365.928239 9.476147 -22.511788 -0.853311 -0.430726 -0.193002 2.998210 -0.606679 0.228078 0.214999 17.745081 27.881693 -9.086329 0.000000 0.000000 0.000000 6.184198 -10.850316 14.127161 9.443466 3.940980 3.027416 0.548630 -2.471467 5.348246 5.605978 15.076064 -21.627207 0.000000 0.000000 0.000000 0.000000 0.000000 0.000000 23.681162 29.221854 -19.600367 -107.129561 -8.074440 -15.336252 -10.217353 5.015913 16.790942 7.873397 62.021624 -7.148657 0.000000 0.000000 0.000000 0.000000 0.000000 0.000000 54.718754 31.986834 -6.740507 -34.582255 -18.982828 -10.475483 -47.652032 4.831719 39.635160 0.000000 0.000000 0.000000 39.399823 -6.606484 -19.153589 -45.566023 1.435695 24.050298 0.706153 2.914559 3.672621 0.000000 0.000000 0.000000
31.133623 49.603676 366.508658 8.142807 -23.182585 -2.237403 -0.294490 -0.219072 4.105373 -0.604963 0.330809 0.161176 18.947530 28.028751 -9.338080 0.000000 0.000000 0.000000 8.916956 -9.253970 13.531291 10.486194 -0.626653 6.351970 0.313315 -3.361224 7.657005 3.628928 17.050772 -21.045287 0.000000 0.000000 0.000000 0.000000 0.000000 0.000000 27.205634 26.188135 -19.094313 -106.923705 -7.493852 -11.206573 -8.142352 5.705698 15.187665 -5.099083 61.359797 1.379655 0.000000 0.000000 0.000000 0.000000 0.000000 0.000000 65.363364 30.670887 -11.790008 -38.855515 -19.669311 -8.070543 -49.859868 1.200749 38.390594 0.000000 0.000000 0.000000 43.328543 -9.147284 -21.406999 -52.279329 -0.407553 27.541019 11.373190 -6.100751 13.350056 0.000000 0.000000 0.000000
29.577561 51.855360 366.566640 6.841518 -23.430344 4.318165 -0.148236 -0.149400 -2.772258 -0.569593 0.417268 0.110682 18.760836 28.759187 -9.181035 0.000000 0.000000 0.000000 11.215182 -9.979765 13.909042 15.451113 -4.067588 3.871682 1.499245 -0.550594 6.258917 -3.082419 15.948936 -13.122343 0.000000 0.000000 0.000000 0.000000 0.000000 0.000000 30.274840 23.048864 -18.294012 -106.983244 -6.812366 -6.547966 -7.070925 6.344170 12.249742 -10.746343 59.045733 5.739985 0.000000 0.000000 0.000000 0.000000 0.000000 0.000000 73.806092 22.038141 -17.317179 -42.522110 -17.067157 -8.334873 -49.277578 -9.681399 35.796127 0.000000 0.000000 0.000000 46.156860 -16.259657 -26.688814 -56.316141 1.685896 28.377033 15.314993 -11.803376 33.310311 0.000000 0.000000 0.000000
28.427644 53.920833 366.022184 5.808896 -22.995646 15.378745 -0.017448 -0.075845 -14.126270 -0.529780 0.464718 0.074756 17.599485 28.810468 -8.455376 0.000000 0.000000 0.000000 12.305247 -9.350215 13.359375 19.189535 -8.568445 4.986112 1.397315 0.759993 6.732933 -5.833368 18.363248 -13.349066 0.000000 0.000000 0.000000 0.000000 0.000000 0.000000 33.365597 19.338439 -17.168575 -107.738085 -5.924213 -3.892678 -6.524227 6.249415 13.701435 -11.097224 59.042123 3.733712 0.000000 0.000000 0.000000 0.000000 0.000000 0.000000 78.207882 9.707969 -20.131618 -47.298754 -10.892605 -11.976103 -43.259747 -31.598650 27.786757 0.000000 0.000000 0.000000 47.524665 -26.277577 -31.927660 -57.593924 5.121864 27.128506 -4.613530 -6.681786 57.967671 0.000000 0.000000 0.000000
28.098604 55.550592 365.409124 5.336916 -22.390941 27.426358 0.134079 0.037217 -26.333848 -0.539584 0.603737 0.063373 16.699171 28.901305 -7.963843 0.000000 0.000000 0.000000 13.749038 -6.305541 11.597595 20.084997 -12.267774 5.996096 8.285374 -3.140736 9.021356 -13.370137 24.715737 -13.639513 0.000000 0.000000 0.000000 0.000000 0.000000 0.000000 34.830303 16.478296 -15.774348 -107.724473 -5.218899 -2.315786 -6.848032 6.263645 13.478066 -14.110419 54.396019 8.685407 0.000000 0.000000 0.000000 0.000000 0.000000 0.000000 79.787731 -3.275724 -21.912065 -54.030498 -4.386246 -15.456088 -37.854972 -43.314081 32.545238 0.000000 0.000000 0.000000 45.831916 -36.058625 -37.564329 -59.672275 7.576698 24.938730 -16.612872 -8.673769 77.061778 0.000000 0.000000 0.000000
26.580660 57.669608 365.009581 3.876367 -21.916401 35.078187 0.131634 0.150381 -34.317414 -0.527984 0.615076 0.010849 16.098319 28.598559 -7.216449 0.000000 0.000000 0.000000 16.613189 -1.329176 8.693399 20.148490 -16.061244 7.272059 11.942418 -2.618729 5.971386 -19.687058 23.896881 -8.994575 0.000000 0.000000 0.000000 0.000000 0.000000 0.000000 37.096131 14.272090 -14.742430 -107.618366 -4.601137 -1.358815 -6.225802 6.287010 13.833453 -12.747554 53.569594 6.822771 0.000000 0.000000 0.000000 0.000000 0.000000 0.000000 83.481569 -13.063159 -21.565245 -61.245396 -1.759247 -16.495110 -34.669731 -38.089070 34.559003 0.000000 0.000000 0.000000 45.628888 -45.121640 -41.547630 -63.691854 9.957087 24.759602 -24.965274 -12.186358 86.389067 0.000000 0.000000 0.000000
